# xmcd
#
# Track frame offsets:
# 150
# 18605
# 37266
# 54273
# 72211
# 92668
# 115735
# 135463
# 150629
# 176043
# 190576
# 210446
# 224726
# 259973
# 274263
#
# Disc length: 3914 seconds
#
#
# Revision: 0
# Processed by: cddbd v1.5.2PL0 Copyright (c) Steve Scherf et al.
# Submitted via: FreeRIP 2.951 
#
DISCID=dd0f480f
DTITLE=Visionaries - We Are The Ones(We've Been Waiting For)
DYEAR=1900
DGENRE=Hip-Hop
TTITLE0=All We Need
TTITLE1=In The Good(Ariano)
TTITLE2=All Right
TTITLE3=Crop Circles
TTITLE4=Do Gooders(GA Muldrow)
TTITLE5=One Percent
TTITLE6=Lately
TTITLE7=Forward Motion
TTITLE8=The Moreye Reprise
TTITLE9=This Here
TTITLE10=School Daze
TTITLE11=Smash Music
TTITLE12=Need To Learn(SadatX Rakaa Brother)
TTITLE13=Talkin Handjive(Shortcut)
TTITLE14=We Are The Ones
EXTD=
EXTT0=
EXTT1=
EXTT2=
EXTT3=
EXTT4=
EXTT5=
EXTT6=
EXTT7=
EXTT8=
EXTT9=
EXTT10=
EXTT11=
EXTT12=
EXTT13=
EXTT14=
PLAYORDER=
